<svg xmlns="http://www.w3.org/2000/svg" width="80" height="42" viewBox="0 0 80 42" fill="none"><g id="Logo-GSG"><g id="G"><path id="path20" d="M5.66152 16.9341C5.66152 13.8035 8.19758 11.2726 11.3226 11.2726V5.61147C5.06827 5.61147 0 10.6793 0 16.9341H5.66152Z" fill="#6ABD45"></path><path id="path24" d="M11.3228 11.2731C14.4533 11.2731 16.9843 13.8091 16.9843 16.9346H22.6454C22.6454 10.6798 17.5775 5.61154 11.3228 5.61154V11.2731Z" fill="#F6861F"></path><path id="path28" d="M16.9843 16.9342C16.9843 20.0648 14.4483 22.5957 11.3232 22.5957V28.2568C17.5776 28.2568 22.6458 23.189 22.6458 16.9342H16.9843Z" fill="#28AAE1"></path><path id="path32" d="M11.3231 22.5958C8.1925 22.5958 5.66158 20.0597 5.66158 16.9343H0.000488281C0.000488281 23.1891 5.06833 28.2573 11.3231 28.2573V22.5958Z" fill="#CE171E"></path><path id="path36" d="M0.000488281 29.9054C0.000488281 36.1602 5.06833 41.228 11.3231 41.228C17.5774 41.228 22.6457 36.1602 22.6457 29.9054H16.9842C16.9842 33.0304 14.4481 35.5669 11.3231 35.5669C8.1925 35.5669 5.66201 33.0304 5.66201 29.9054H0.000488281Z" fill="#175EAB"></path><path id="path40" d="M25.9333 4.05949C25.9333 5.87518 24.4613 7.34717 22.6456 7.34717C20.8299 7.34717 19.3579 5.87518 19.3579 4.05949C19.3579 2.2438 20.8299 0.771811 22.6456 0.771811C24.4613 0.771811 25.9333 2.2438 25.9333 4.05949Z" fill="#175EAB"></path></g><g id="GSG"><path d="M35.8256 10.5258H40.6616C40.6747 10.6953 40.6747 10.8387 40.6747 10.969C40.6747 13.4978 38.8889 15.4922 36.2949 15.4922C33.74 15.4922 31.7456 13.4978 31.7456 10.956C31.7456 8.41416 33.74 6.4198 36.2688 6.4198C38.1719 6.4198 39.7622 7.34529 40.3879 8.9486L39.4624 9.27448C38.8498 8.01007 37.6636 7.38439 36.2688 7.38439C34.3136 7.38439 32.7885 8.9486 32.7885 10.956C32.7885 12.9634 34.3396 14.5276 36.321 14.5276C38.185 14.5276 39.4754 13.2241 39.684 11.4644H35.8256V10.5258Z" fill="#231F20"></path><path d="M43.5283 15.3227H42.5377V5.9375H43.5283V15.3227Z" fill="#231F20"></path><path d="M48.6505 8.75307C50.5406 8.75307 52.0526 10.1348 52.0526 12.1031C52.0526 14.0714 50.5406 15.4792 48.6505 15.4792C46.7343 15.4792 45.2353 14.0714 45.2353 12.1031C45.2353 10.1348 46.7343 8.75307 48.6505 8.75307ZM48.6505 14.6058C49.967 14.6058 51.075 13.5891 51.075 12.1031C51.075 10.6301 49.967 9.62642 48.6505 9.62642C47.3209 9.62642 46.1999 10.6301 46.1999 12.1031C46.1999 13.5891 47.3209 14.6058 48.6505 14.6058Z" fill="#231F20"></path><path d="M57.2979 8.74004C59.0055 8.74004 60.5046 10.0826 60.5046 12.1161C60.5046 14.1496 59.0055 15.4922 57.2979 15.4922C56.2291 15.4922 55.3166 15.062 54.7431 14.306V15.3227H53.7524V5.9375H54.7431V9.92623C55.3166 9.17019 56.2291 8.74004 57.2979 8.74004ZM57.1415 14.6058C58.4711 14.6058 59.54 13.6412 59.54 12.1161C59.54 10.578 58.4711 9.61339 57.1415 9.61339C55.9292 9.61339 54.7431 10.578 54.7431 12.1161C54.7431 13.6412 55.9292 14.6058 57.1415 14.6058Z" fill="#231F20"></path><path d="M68.318 8.89646V15.3227H67.3273V14.306C66.7537 15.062 65.8413 15.4922 64.7724 15.4922C63.0648 15.4922 61.5658 14.1496 61.5658 12.1161C61.5658 10.0826 63.0648 8.74004 64.7724 8.74004C65.8413 8.74004 66.7537 9.17019 67.3273 9.92623V8.89646H68.318ZM64.9288 14.6058C66.1411 14.6058 67.3273 13.6412 67.3273 12.1161C67.3273 10.578 66.1411 9.61339 64.9288 9.61339C63.5993 9.61339 62.5304 10.578 62.5304 12.1161C62.5304 13.6412 63.5993 14.6058 64.9288 14.6058Z" fill="#231F20"></path><path d="M71.597 15.3227H70.6063V5.9375H71.597V15.3227Z" fill="#231F20"></path><path d="M35.0826 17.9428C36.8293 17.9428 38.0546 18.9074 38.3544 20.3412L37.3247 20.5759C37.1291 19.52 36.2558 18.8422 35.0566 18.8422C33.8834 18.8422 33.0752 19.4809 33.0752 20.4195C33.0752 21.2016 33.5706 21.5535 34.3918 21.723L36.2949 22.1531C37.5071 22.4138 38.4978 23.0265 38.4978 24.4212C38.4978 26.0115 37.2073 27.0152 35.2521 27.0152C33.4011 27.0152 31.9151 26.0636 31.7065 24.4082L32.7885 24.1866C32.984 25.4119 33.9877 26.1027 35.3433 26.1027C36.6729 26.1027 37.468 25.438 37.468 24.4734C37.468 23.6521 37.0248 23.3263 36.0472 23.1047L34.0789 22.6745C32.9579 22.4269 31.9803 21.8403 31.9803 20.4455C31.9803 18.9465 33.2186 17.9428 35.0826 17.9428Z" fill="#231F20"></path><path d="M43.1116 26.0897C44.0632 26.0897 44.9235 25.6074 45.2363 24.6428L46.1488 24.8905C45.7968 26.207 44.5324 27.0152 43.1116 27.0152C41.2997 27.0152 39.7616 25.6856 39.7616 23.6391C39.7616 21.6187 41.2997 20.263 43.1116 20.263C44.5194 20.263 45.7708 21.0842 46.1618 22.4008L45.2103 22.6876C44.9235 21.6969 44.0632 21.1755 43.1116 21.1755C41.7951 21.1755 40.7262 22.1662 40.7262 23.6391C40.7262 25.1381 41.7951 26.0897 43.1116 26.0897Z" fill="#231F20"></path><path d="M51.2738 20.263C52.825 20.263 53.8547 21.371 53.8547 23.0004V26.8457H52.8641V23.1829C52.8641 21.9837 52.1471 21.1755 51.0783 21.1755C49.7357 21.1755 48.8493 22.0879 48.8493 23.7564V26.8457H47.8586V17.4605H48.8493V21.4883C49.3707 20.7062 50.1919 20.263 51.2738 20.263Z" fill="#231F20"></path><path d="M58.8341 20.2761C60.7242 20.2761 62.2363 21.6578 62.2363 23.6261C62.2363 25.5944 60.7242 27.0022 58.8341 27.0022C56.918 27.0022 55.4189 25.5944 55.4189 23.6261C55.4189 21.6578 56.918 20.2761 58.8341 20.2761ZM58.8341 26.1288C60.1507 26.1288 61.2586 25.1121 61.2586 23.6261C61.2586 22.1531 60.1507 21.1494 58.8341 21.1494C57.5046 21.1494 56.3835 22.1531 56.3835 23.6261C56.3835 25.1121 57.5046 26.1288 58.8341 26.1288Z" fill="#231F20"></path><path d="M66.7646 20.2761C68.6547 20.2761 70.1668 21.6578 70.1668 23.6261C70.1668 25.5944 68.6547 27.0022 66.7646 27.0022C64.8485 27.0022 63.3495 25.5944 63.3495 23.6261C63.3495 21.6578 64.8485 20.2761 66.7646 20.2761ZM66.7646 26.1288C68.0812 26.1288 69.1892 25.1121 69.1892 23.6261C69.1892 22.1531 68.0812 21.1494 66.7646 21.1494C65.4351 21.1494 64.314 22.1531 64.314 23.6261C64.314 25.1121 65.4351 26.1288 66.7646 26.1288Z" fill="#231F20"></path><path d="M72.8572 26.8457H71.8665V17.4605H72.8572V26.8457Z" fill="#231F20"></path><path d="M74.6033 25.1121L75.594 24.8905C75.6852 25.7378 76.4673 26.194 77.484 26.194C78.4095 26.194 79.0222 25.7638 79.0222 25.099C79.0222 24.5646 78.6181 24.3169 77.9663 24.1736L76.4934 23.8477C75.4245 23.6261 74.8249 23.0916 74.8249 22.2053C74.8249 21.0451 75.7895 20.263 77.2624 20.263C78.7093 20.263 79.6479 21.006 79.8825 22.0488L78.9309 22.2574C78.8006 21.5535 78.1879 21.0712 77.2364 21.0712C76.3239 21.0712 75.8156 21.5144 75.8156 22.127C75.8156 22.6354 76.1675 22.87 76.7932 23.0134L78.3444 23.3523C79.2829 23.5609 79.9998 24.0562 79.9998 25.0339C79.9998 26.2983 78.944 27.0152 77.4058 27.0152C75.9329 27.0152 74.7597 26.3634 74.6033 25.1121Z" fill="#231F20"></path><path d="M35.8256 33.5718H40.6616C40.6747 33.7413 40.6747 33.8847 40.6747 34.015C40.6747 36.5438 38.8889 38.5382 36.2949 38.5382C33.74 38.5382 31.7456 36.5438 31.7456 34.002C31.7456 31.4601 33.74 29.4658 36.2688 29.4658C38.1719 29.4658 39.7622 30.3913 40.3879 31.9946L39.4624 32.3205C38.8498 31.0561 37.6636 30.4304 36.2688 30.4304C34.3136 30.4304 32.7885 31.9946 32.7885 34.002C32.7885 36.0094 34.3396 37.5736 36.321 37.5736C38.185 37.5736 39.4754 36.2701 39.684 34.5104H35.8256V33.5718Z" fill="#231F20"></path><path d="M46.1223 31.8773C46.2787 31.8773 46.396 31.8773 46.5785 31.9294L46.5003 32.881C46.383 32.8679 46.2396 32.8679 46.1223 32.8679C44.4147 32.8679 43.5414 34.1584 43.5414 35.8921V38.3687H42.5377V31.9424H43.5414V33.5197C44.0628 32.5681 44.9361 31.8773 46.1223 31.8773Z" fill="#231F20"></path><path d="M50.5727 31.7991C52.4627 31.7991 53.9748 33.1808 53.9748 35.1491C53.9748 37.1174 52.4627 38.5252 50.5727 38.5252C48.6565 38.5252 47.1575 37.1174 47.1575 35.1491C47.1575 33.1808 48.6565 31.7991 50.5727 31.7991ZM50.5727 37.6518C51.8892 37.6518 52.9972 36.6351 52.9972 35.1491C52.9972 33.6761 51.8892 32.6724 50.5727 32.6724C49.2431 32.6724 48.1221 33.6761 48.1221 35.1491C48.1221 36.6351 49.2431 37.6518 50.5727 37.6518Z" fill="#231F20"></path><path d="M61.5273 31.9424V38.3557H60.5236V37.3129C60.0022 38.082 59.168 38.5252 58.0991 38.5252C56.5479 38.5252 55.5181 37.4172 55.5181 35.7878V31.9424H56.5218V35.6053C56.5218 36.8045 57.2257 37.5997 58.2946 37.5997C59.6372 37.5997 60.5236 36.7002 60.5236 35.0318V31.9424H61.5273Z" fill="#231F20"></path><path d="M67.3543 31.786C69.0619 31.786 70.5609 33.1286 70.5609 35.1621C70.5609 37.1956 69.0619 38.5382 67.3543 38.5382C66.2854 38.5382 65.3729 38.108 64.7994 37.352V40.5847H63.8087V31.9424H64.7994V32.9722C65.3729 32.2162 66.2854 31.786 67.3543 31.786ZM67.1978 37.6518C68.5274 37.6518 69.5963 36.6872 69.5963 35.1621C69.5963 33.624 68.5274 32.6594 67.1978 32.6594C65.9856 32.6594 64.7994 33.624 64.7994 35.1621C64.7994 36.6872 65.9856 37.6518 67.1978 37.6518Z" fill="#231F20"></path></g></g></svg>