<svg xmlns="http://www.w3.org/2000/svg" viewBox="0 0 25.94 42" fill="none" role="img" aria-label="Global Schools Group">
  <path d="M5.66152 16.9341C5.66152 13.8035 8.19758 11.2726 11.3226 11.2726V5.61147C5.06827 5.61147 0 10.6793 0 16.9341H5.66152Z" fill="#6ABD45"/>
  <path d="M11.3228 11.2731C14.4533 11.2731 16.9843 13.8091 16.9843 16.9346H22.6454C22.6454 10.6798 17.5775 5.61154 11.3228 5.61154V11.2731Z" fill="#F6861F"/>
  <path d="M16.9843 16.9342C16.9843 20.0648 14.4483 22.5957 11.3232 22.5957V28.2568C17.5776 28.2568 22.6458 23.189 22.6458 16.9342H16.9843Z" fill="#28AAE1"/>
  <path d="M11.3231 22.5958C8.1925 22.5958 5.66158 20.0597 5.66158 16.9343H0.000488281C0.000488281 23.1891 5.06833 28.2573 11.3231 28.2573V22.5958Z" fill="#CE171E"/>
  <path d="M0.000488281 29.9054C0.000488281 36.1602 5.06833 41.228 11.3231 41.228C17.5774 41.228 22.6457 36.1602 22.6457 29.9054H16.9842C16.9842 33.0304 14.4481 35.5669 11.3231 35.5669C8.1925 35.5669 5.66201 33.0304 5.66201 29.9054H0.000488281Z" fill="#175EAB"/>
  <path d="M25.9333 4.05949C25.9333 5.87518 24.4613 7.34717 22.6456 7.34717C20.8299 7.34717 19.3579 5.87518 19.3579 4.05949C19.3579 2.2438 20.8299 0.771811 22.6456 0.771811C24.4613 0.771811 25.9333 2.2438 25.9333 4.05949Z" fill="#175EAB"/>
</svg>
